<svg id="Layer_1" data-name="Layer 1" xmlns="http://www.w3.org/2000/svg" viewBox="0 0 323.81 132.81"><defs><style>.cls-1{fill:#231f20;}</style></defs><title>blackbird-logo-rgb</title><path class="cls-1" d="M457.53,328.5c-8.55,5.49-14,8.33-14,8.35s-2.91,6.25-3.06,8.11a53.54,53.54,0,0,1-.32-6.05c-.21.1-12.49,9.32-14.43,14-2.34,4.9,1.22,11.62,1.2,11.63a59.13,59.13,0,0,0-3.61,4.73c-1.61,2.34-2.66,4.54-2.57,4.84.12.62,1.92,4.45,1.53,1.18s6.29-8.19,6.77-8.21c1.28.56,6.88.09,7.81.69s5.35-2.58,5.42-2.61-5.91,1.9-8.79-.45a60.79,60.79,0,0,0,11.57-1.6c-.42.17,9.24-9.84,11.75-11.11,1.92-1,8.58-6,8.67-6.05s-3.37,1.57-4.94.15a47,47,0,0,0,9.46-2.68c-.17.08,9.31-9.23,14.4-14.91a19.07,19.07,0,0,0,4.43-3.69s1.85-2.75,2-4.52c-1.74.88-2.54.47-2.54.47s2-2.54,1.28-4.23a9.2,9.2,0,0,1-2.3.53,34.89,34.89,0,0,0-6.12,1.44C477.86,319.61,466.2,323,457.53,328.5Zm-2.3,12.34c10.57-6.86,24-14.72,28.81-16.8.06,0-14.5,9-26.1,16.88-12.1,8.07-21.24,14.95-22,15.86-1.64,1.82-5.29,6-5.57,6.75,0,.12,0,.16,0,.09a.46.46,0,0,1,0-.09,21,21,0,0,1,4.35-8C436.29,353.84,444.34,347.84,455.23,340.84Z" transform="translate(-235.43 -243.83)"/><path class="cls-1" d="M240,329.56a1,1,0,0,1,.47-.77,1.63,1.63,0,0,1,1-.34q.68,0,.83.5l4.93,13.21L251.85,329a.79.79,0,0,1,.79-.5,1.67,1.67,0,0,1,1,.34,1,1,0,0,1,.49.81.41.41,0,0,1-.07.29L248.43,345l-.65,1.76q-.18.47-.7,1.69a11.94,11.94,0,0,1-.88,1.76l-.94,1.44a5.1,5.1,0,0,1-1.17,1.3,7.42,7.42,0,0,1-1.35.74,4,4,0,0,1-1.62.34A1,1,0,0,1,240,353q0-1.12.72-1.12a3.91,3.91,0,0,0,3.08-2,14.24,14.24,0,0,0,2.14-4.93l-5.87-15A.64.64,0,0,1,240,329.56Z" transform="translate(-235.43 -243.83)"/><path class="cls-1" d="M258.36,339.11v-3.92a6.44,6.44,0,0,1,2-4.73,6.57,6.57,0,0,1,4.79-2,6.73,6.73,0,0,1,4.82,2,6.37,6.37,0,0,1,2.05,4.75v3.92a6.84,6.84,0,0,1-13.68,0Zm2.34,0a4.62,4.62,0,0,0,1.31,3.24,4.15,4.15,0,0,0,3.15,1.41,4.25,4.25,0,0,0,3.2-1.41,4.6,4.6,0,0,0,1.33-3.24v-3.9a4.42,4.42,0,0,0-1.35-3.15,4.29,4.29,0,0,0-3.19-1.4A4.17,4.17,0,0,0,262,332a4.48,4.48,0,0,0-1.31,3.15Z" transform="translate(-235.43 -243.83)"/><path class="cls-1" d="M276.69,349.26q0-2.7,3.06-3.92a2.51,2.51,0,0,1-2-2.47,2.89,2.89,0,0,1,1.8-2.58,5.62,5.62,0,0,1-2-4.55v-1.37a5.66,5.66,0,0,1,1.71-4.28,6.82,6.82,0,0,1,8.69-.16,5.67,5.67,0,0,1,1.22-1.64,2,2,0,0,1,1.33-.61,1.07,1.07,0,0,1,.79.29.9.9,0,0,1,.29.65.73.73,0,0,1-.61.79,3,3,0,0,0-2,1.52,5.48,5.48,0,0,1,1,3.39v1.37a5.71,5.71,0,0,1-1.76,4.3,6.23,6.23,0,0,1-4.5,1.7,6.51,6.51,0,0,1-2.77-.6q-1.12.61-1.12,1.39a1.24,1.24,0,0,0,.83,1.15,6.86,6.86,0,0,0,2.06.56l2.7.35a18.25,18.25,0,0,1,2.71.55,4.2,4.2,0,0,1,2.07,1.33,3.73,3.73,0,0,1,.83,2.51,4.31,4.31,0,0,1-1.94,3.78A8.88,8.88,0,0,1,284,354a9.68,9.68,0,0,1-5.27-1.3A4,4,0,0,1,276.69,349.26ZM279,349a2.74,2.74,0,0,0,1.35,2.38,6.51,6.51,0,0,0,3.65.9,6.07,6.07,0,0,0,3.55-.9,2.82,2.82,0,0,0,1.28-2.42,2.22,2.22,0,0,0-.36-1.26,2.63,2.63,0,0,0-.84-.83,5.25,5.25,0,0,0-1.28-.5,8.81,8.81,0,0,0-1.4-.28l-1.51-.16-1.22-.12Q279,346.85,279,349Zm.9-13.35a4.47,4.47,0,0,0,1.06,3.08,3.68,3.68,0,0,0,2.9,1.2,3.59,3.59,0,0,0,2.83-1.2,4.42,4.42,0,0,0,1.06-3v-1.38a4.3,4.3,0,0,0-1.06-3,4.06,4.06,0,0,0-5.72,0,4.3,4.3,0,0,0-1.06,3Z" transform="translate(-235.43 -243.83)"/><path class="cls-1" d="M295.3,341.2a4,4,0,0,1,2.14-3.94,14,14,0,0,1,6.25-1.1h1.84v-.85a5.57,5.57,0,0,0-1-3.37,3.7,3.7,0,0,0-3.2-1.43,6.45,6.45,0,0,0-2.61.51,13.15,13.15,0,0,1-1.24.51.78.78,0,0,1-.68-.39,1.53,1.53,0,0,1-.25-.85q0-.68,1.55-1.26a9.42,9.42,0,0,1,3.31-.58q3.38,0,5,2a7.75,7.75,0,0,1,1.57,5v9.36a.83.83,0,0,1-.32.67,1.25,1.25,0,0,1-.83.27,1.13,1.13,0,0,1-.77-.27.85.85,0,0,1-.31-.67v-1.58a7.1,7.1,0,0,1-5.44,2.77,5.13,5.13,0,0,1-3.53-1.21A4.47,4.47,0,0,1,295.3,341.2Zm2.34-.22a2.8,2.8,0,0,0,.86,2.25,3.37,3.37,0,0,0,2.27.74,5,5,0,0,0,3.22-1.26,3.43,3.43,0,0,0,1.53-2.52v-2.3H304a23.15,23.15,0,0,0-2.43.11,11.11,11.11,0,0,0-2,.4,2.82,2.82,0,0,0-1.48.94A2.62,2.62,0,0,0,297.64,341Z" transform="translate(-235.43 -243.83)"/><path class="cls-1" d="M322.69,343.36a1.24,1.24,0,0,1,.25-.72.71.71,0,0,1,.58-.36,1.64,1.64,0,0,1,.79.41,7.36,7.36,0,0,0,1.55.85,6.09,6.09,0,0,0,2.41.43,4.47,4.47,0,0,0,2.81-.72,2.25,2.25,0,0,0,.9-1.84,2.57,2.57,0,0,0-.92-2.07,6.16,6.16,0,0,0-2.21-1.17l-2.61-.79A4.94,4.94,0,0,1,324,336a3.73,3.73,0,0,1-.92-2.65,4.76,4.76,0,0,1,1.42-3.44,5.71,5.71,0,0,1,4.27-1.46,9.55,9.55,0,0,1,3.29.56q1.53.56,1.53,1.21a1.46,1.46,0,0,1-.29.79.82.82,0,0,1-.68.43,10.78,10.78,0,0,1-1.33-.5,6.48,6.48,0,0,0-2.48-.5,3.81,3.81,0,0,0-2.7.85,2.56,2.56,0,0,0-.9,1.9,2,2,0,0,0,.93,1.73,8,8,0,0,0,2.23,1l2.63.78a4.32,4.32,0,0,1,2.23,1.57,4.84,4.84,0,0,1,.9,3,4.14,4.14,0,0,1-1.53,3.4,6.6,6.6,0,0,1-4.27,1.24,8.66,8.66,0,0,1-4-.85Q322.69,344.26,322.69,343.36Z" transform="translate(-235.43 -243.83)"/><path class="cls-1" d="M339.72,340.41V321.47a.73.73,0,0,1,.36-.61,1.35,1.35,0,0,1,.79-.25,1.42,1.42,0,0,1,.83.25.73.73,0,0,1,.36.61v7.2h4.64a.73.73,0,0,1,.59.29,1.16,1.16,0,0,1,0,1.39.73.73,0,0,1-.59.29h-4.64v9.71a3.28,3.28,0,0,0,.74,2.45,3.8,3.8,0,0,0,2.61.7h1a1,1,0,0,1,.77.32,1.06,1.06,0,0,1,.31.76,1.13,1.13,0,0,1-.31.78,1,1,0,0,1-.77.33h-1Q339.72,345.7,339.72,340.41Z" transform="translate(-235.43 -243.83)"/><path class="cls-1" d="M352.47,339.18v-9.61a.81.81,0,0,1,.34-.61,1.27,1.27,0,0,1,.85-.29,1.24,1.24,0,0,1,.79.29.8.8,0,0,1,.36.61v9.59a4.51,4.51,0,0,0,1.33,3.2,4.28,4.28,0,0,0,6.34,0,4.51,4.51,0,0,0,1.33-3.2v-9.63a.73.73,0,0,1,.36-.61,1.41,1.41,0,0,1,.83-.25,1.33,1.33,0,0,1,.81.25.74.74,0,0,1,.34.61v9.65a6.49,6.49,0,0,1-2,4.73,6.83,6.83,0,0,1-11.65-4.73Z" transform="translate(-235.43 -243.83)"/><path class="cls-1" d="M372,339.11v-3.92a6.64,6.64,0,0,1,1.89-4.75,6.07,6.07,0,0,1,4.55-2,5.31,5.31,0,0,1,4.75,2.77V319.13a.73.73,0,0,1,.36-.61,1.47,1.47,0,0,1,.86-.25,1.23,1.23,0,0,1,.81.25.77.77,0,0,1,.31.61v25.63a.85.85,0,0,1-.32.65,1.21,1.21,0,0,1-1.57,0,.85.85,0,0,1-.34-.66v-1.6a5.15,5.15,0,0,1-2,2,5.61,5.61,0,0,1-3,.82,5.89,5.89,0,0,1-4.46-2.07A6.83,6.83,0,0,1,372,339.11Zm2.34,0a4.61,4.61,0,0,0,1.33,3.22,4.14,4.14,0,0,0,3.13,1.43,4.28,4.28,0,0,0,3.06-1.29,3.51,3.51,0,0,0,1.33-2.26v-5a4.35,4.35,0,0,0-1.31-3.29,4.28,4.28,0,0,0-3-1.25,4.23,4.23,0,0,0-3.17,1.4,4.45,4.45,0,0,0-1.33,3.15Z" transform="translate(-235.43 -243.83)"/><path class="cls-1" d="M392.24,323.18a1.43,1.43,0,0,1-.47-1.06,1.37,1.37,0,0,1,.47-1,1.64,1.64,0,0,1,1.15-.43,1.53,1.53,0,0,1,1.1.43,1.4,1.4,0,0,1,.45,1,1.45,1.45,0,0,1-.45,1.06,1.49,1.49,0,0,1-1.1.45A1.6,1.6,0,0,1,392.24,323.18Zm0,21.58V329.53a.75.75,0,0,1,.32-.61,1.31,1.31,0,0,1,.83-.25,1.39,1.39,0,0,1,.85.25.74.74,0,0,1,.34.61v15.23a.83.83,0,0,1-.36.65,1.29,1.29,0,0,1-.83.29,1.21,1.21,0,0,1-.81-.29A.83.83,0,0,1,392.24,344.76Z" transform="translate(-235.43 -243.83)"/><path class="cls-1" d="M400.6,339.11v-3.92a6.44,6.44,0,0,1,2-4.73,6.57,6.57,0,0,1,4.79-2,6.73,6.73,0,0,1,4.82,2,6.37,6.37,0,0,1,2.05,4.75v3.92a6.84,6.84,0,0,1-13.68,0Zm2.34,0a4.62,4.62,0,0,0,1.31,3.24,4.15,4.15,0,0,0,3.15,1.41,4.25,4.25,0,0,0,3.2-1.41,4.6,4.6,0,0,0,1.33-3.24v-3.9a4.42,4.42,0,0,0-1.35-3.15,4.29,4.29,0,0,0-3.19-1.4,4.17,4.17,0,0,0-3.15,1.4,4.48,4.48,0,0,0-1.31,3.15Z" transform="translate(-235.43 -243.83)"/><path class="cls-1" d="M275.86,284.8q0,9.49-4.3,15.14a14.05,14.05,0,0,1-11.84,5.64,16.33,16.33,0,0,1-8-1.86,14.3,14.3,0,0,1-5.43-5.33l-.51,6.37h-4v-57l-6.37-.51v-3.48h11v25.31a14.45,14.45,0,0,1,13.2-7.42,13.79,13.79,0,0,1,11.91,6.07q4.3,6.07,4.3,16.19Zm-4.73-.82q0-8.09-3.12-13.14a10.16,10.16,0,0,0-9.22-5.06,12.18,12.18,0,0,0-7.91,2.42,14.46,14.46,0,0,0-4.43,6.21v19.1a12.65,12.65,0,0,0,12.42,8q6.09,0,9.18-4.53t3.09-12.19Z" transform="translate(-235.43 -243.83)"/><path class="cls-1" d="M279.66,247.3v-3.48h11v57l6.37.51v3.44H279.66v-3.44l6.37-.51v-53Z" transform="translate(-235.43 -243.83)"/><path class="cls-1" d="M330.81,304.77q-.47-2.15-.66-3.71a25.34,25.34,0,0,1-.2-3.16,18.65,18.65,0,0,1-6.25,5.51,17.68,17.68,0,0,1-8.79,2.19q-6.21,0-9.61-3.2a11.34,11.34,0,0,1-3.4-8.67,10.71,10.71,0,0,1,5-9.3q5-3.44,13.67-3.44h9.34v-5.59a9,9,0,0,0-2.91-7.11q-2.91-2.58-8.14-2.58a20.49,20.49,0,0,0-6.43,1,14.53,14.53,0,0,0-4.86,2.6l-.39,5.66h-3.87l0-8.12a24.31,24.31,0,0,1,7-3.67,26.5,26.5,0,0,1,8.69-1.41q7,0,11.25,3.55t4.26,10.2v20.78q0,1.29.06,2.48a19.08,19.08,0,0,0,.25,2.32l4.22.27v3.44Zm-15.39-3.32a16.92,16.92,0,0,0,8.95-2.34,13.84,13.84,0,0,0,5.59-6.05v-8.48h-9.41q-6.37,0-10.18,2.64a7.86,7.86,0,0,0-3.81,6.66,7,7,0,0,0,2.36,5.49A9.47,9.47,0,0,0,315.42,301.44Z" transform="translate(-235.43 -243.83)"/><path class="cls-1" d="M361,301.64a13.33,13.33,0,0,0,8.2-2.66,8.7,8.7,0,0,0,3.55-7.38h4.14l.08.23a11.61,11.61,0,0,1-4.67,9.8A17.42,17.42,0,0,1,361,305.59q-8.59,0-13.32-5.92T343,284.45v-1.64q0-9.22,4.73-15.16T361,261.72a21.48,21.48,0,0,1,8.95,1.84,17.58,17.58,0,0,1,6.6,5l.2,9.22h-4l-.74-7.5a13.35,13.35,0,0,0-4.67-3.34A15.6,15.6,0,0,0,361,265.7q-6.8,0-10.06,4.86t-3.26,12.25v1.64q0,7.5,3.24,12.34T361,301.64Z" transform="translate(-235.43 -243.83)"/><path class="cls-1" d="M381.54,247.3v-3.48h11v36.33h5l12.85-13.71-.08-.2-3.87-.27V262.5H421.3V266l-4.92.47L401.93,281.8l16.45,19.1,4.69.43v3.44H408.21v-3.44l4.45-.27L398,284.18h-5.43v16.64l6.37.51v3.44H381.54v-3.44l6.37-.51v-53Z" transform="translate(-235.43 -243.83)"/><path class="cls-1" d="M463.07,284.8q0,9.49-4.3,15.14a14.05,14.05,0,0,1-11.84,5.64,16.33,16.33,0,0,1-8-1.86,14.3,14.3,0,0,1-5.43-5.33l-.51,6.37h-4v-57l-6.37-.51v-3.48h11v25.31a14.45,14.45,0,0,1,13.2-7.42,13.79,13.79,0,0,1,11.91,6.07q4.3,6.07,4.3,16.19Zm-4.73-.82q0-8.09-3.12-13.14a10.16,10.16,0,0,0-9.22-5.06,12.18,12.18,0,0,0-7.91,2.42,14.46,14.46,0,0,0-4.43,6.21v19.1a12.65,12.65,0,0,0,12.42,8q6.09,0,9.18-4.53t3.09-12.19Z" transform="translate(-235.43 -243.83)"/><path class="cls-1" d="M469.53,301.2l3.08-.25a1.79,1.79,0,0,0,1.65-1.78v-31a1.79,1.79,0,0,0-1.65-1.78l-3.08-.25a1.79,1.79,0,0,1-1.65-1.78v0a1.79,1.79,0,0,1,1.79-1.79h7.44a1.79,1.79,0,0,1,1.79,1.79v34.88a1.79,1.79,0,0,0,1.65,1.78l3.08.25a1.79,1.79,0,0,1,1.65,1.78h0a1.79,1.79,0,0,1-1.79,1.79H469.68a1.79,1.79,0,0,1-1.79-1.79h0A1.79,1.79,0,0,1,469.53,301.2Z" transform="translate(-235.43 -243.83)"/><path class="cls-1" d="M500.44,262.5l.59,7V270a15,15,0,0,1,4.9-6.11,12.38,12.38,0,0,1,7.36-2.21,10.85,10.85,0,0,1,1.74.14,12.85,12.85,0,0,1,1.39.29l-.62,4.38-3.48-.23a10.6,10.6,0,0,0-7.25,2.48,13.67,13.67,0,0,0-4,6.82v25.23l6.37.51v3.44H490v-3.44l6.37-.51V266.48L490,266V262.5h10.43Z" transform="translate(-235.43 -243.83)"/><path class="cls-1" d="M548.3,298.67a14.59,14.59,0,0,1-5.43,5.12,16.18,16.18,0,0,1-7.81,1.8,14,14,0,0,1-11.86-5.66q-4.28-5.66-4.28-15.12V284q0-10.12,4.28-16.19a13.78,13.78,0,0,1,11.93-6.07,14.5,14.5,0,0,1,13,7.15V247.81l-6.37-.51v-3.48h11.05v57l6.37.51v3.44H548.69ZM523.66,284.8q0,7.66,3.07,12.19t9.24,4.53a13.2,13.2,0,0,0,7.52-2,13.51,13.51,0,0,0,4.71-5.59v-20a14.57,14.57,0,0,0-4.51-5.86,12.19,12.19,0,0,0-7.64-2.27,10.19,10.19,0,0,0-9.28,5.06q-3.11,5.06-3.11,13.14Z" transform="translate(-235.43 -243.83)"/><circle class="cls-1" cx="240.97" cy="3.28" r="3.28"/></svg>