<?xml version="1.0" encoding="utf-8"?>
<!-- Generator: Adobe Illustrator 23.1.1, SVG Export Plug-In . SVG Version: 6.00 Build 0)  -->
<svg version="1.1" id="Layer_1" xmlns="http://www.w3.org/2000/svg" xmlns:xlink="http://www.w3.org/1999/xlink" x="0px" y="0px"
	 viewBox="0 0 432 99.22" style="enable-background:new 0 0 432 99.22;" xml:space="preserve">
<style type="text/css">
	.st0{fill:#571033;}
	.st1{fill:#6D6E71;}
	.st2{fill:#FAA342;}
</style>
<g>
	<g>
		<path class="st0" d="M127.42,55.04h-20.94V15.63h7.09v32.88h13.85V55.04z"/>
		<path class="st0" d="M149.21,52.96c-0.94,0.83-2.21,1.5-3.83,2.03c-1.61,0.53-3.3,0.79-5.07,0.79c-1.95,0-3.63-0.34-5.04-1.01
			c-1.41-0.68-2.56-1.65-3.46-2.93c-0.9-1.27-1.57-2.82-2-4.64c-0.43-1.82-0.65-3.89-0.65-6.22c0-5.07,1-8.81,3.01-11.23
			c2.01-2.42,4.79-3.63,8.36-3.63c1.2,0,2.36,0.18,3.49,0.53c1.13,0.36,2.13,0.96,3.01,1.8c0.88,0.84,1.6,1.97,2.14,3.38
			c0.54,1.41,0.82,3.18,0.82,5.32c0,0.83-0.05,1.71-0.14,2.65c-0.09,0.94-0.24,1.95-0.42,3.04h-13.68c0.08,2.33,0.56,4.11,1.46,5.35
			c0.9,1.24,2.35,1.86,4.33,1.86c1.2,0,2.3-0.19,3.29-0.56c0.99-0.37,1.75-0.77,2.28-1.18L149.21,52.96z M140.43,31.84
			c-1.43,0-2.5,0.57-3.21,1.72c-0.71,1.15-1.13,2.75-1.24,4.81h7.77c0.11-2.14-0.11-3.76-0.68-4.87
			C142.51,32.4,141.63,31.84,140.43,31.84z"/>
		<path class="st0" d="M155.8,15.63c0.68-0.11,1.44-0.2,2.28-0.25s1.71-0.11,2.59-0.17s1.74-0.09,2.56-0.11
			c0.83-0.02,1.56-0.03,2.2-0.03c3.11,0,5.71,0.48,7.8,1.44s3.75,2.31,5.01,4.05c1.26,1.75,2.15,3.84,2.67,6.28
			c0.52,2.44,0.79,5.16,0.79,8.16c0,2.74-0.25,5.36-0.76,7.85c-0.51,2.5-1.4,4.69-2.67,6.59c-1.28,1.9-3,3.41-5.18,4.53
			s-4.92,1.69-8.22,1.69c-0.49,0-1.15-0.02-1.97-0.06c-0.83-0.04-1.69-0.08-2.59-0.14c-0.9-0.06-1.76-0.11-2.59-0.17
			c-0.83-0.06-1.46-0.12-1.91-0.2V15.63z M166.15,21.6c-0.6,0-1.21,0.01-1.83,0.03c-0.62,0.02-1.1,0.07-1.44,0.14V48.9
			c0.11,0.04,0.31,0.07,0.59,0.08c0.28,0.02,0.58,0.04,0.9,0.06c0.32,0.02,0.62,0.04,0.9,0.06c0.28,0.02,0.48,0.03,0.59,0.03
			c1.69,0,3.08-0.39,4.17-1.18c1.09-0.79,1.94-1.84,2.56-3.15c0.62-1.31,1.05-2.82,1.29-4.53c0.24-1.71,0.37-3.5,0.37-5.38
			c0-1.73-0.1-3.4-0.31-5.01c-0.21-1.61-0.6-3.03-1.18-4.25c-0.58-1.22-1.41-2.2-2.48-2.93C169.22,21.96,167.84,21.6,166.15,21.6z"
			/>
		<path class="st0" d="M206.24,52.96c-0.94,0.83-2.21,1.5-3.83,2.03c-1.61,0.53-3.3,0.79-5.07,0.79c-1.95,0-3.63-0.34-5.04-1.01
			c-1.41-0.68-2.56-1.65-3.46-2.93c-0.9-1.27-1.57-2.82-2-4.64c-0.43-1.82-0.65-3.89-0.65-6.22c0-5.07,1-8.81,3.01-11.23
			c2.01-2.42,4.79-3.63,8.36-3.63c1.2,0,2.36,0.18,3.49,0.53c1.13,0.36,2.13,0.96,3.01,1.8c0.88,0.84,1.6,1.97,2.14,3.38
			c0.54,1.41,0.82,3.18,0.82,5.32c0,0.83-0.05,1.71-0.14,2.65c-0.09,0.94-0.24,1.95-0.42,3.04h-13.68c0.08,2.33,0.56,4.11,1.46,5.35
			c0.9,1.24,2.35,1.86,4.33,1.86c1.2,0,2.3-0.19,3.29-0.56c0.99-0.37,1.75-0.77,2.28-1.18L206.24,52.96z M197.46,31.84
			c-1.43,0-2.5,0.57-3.21,1.72c-0.71,1.15-1.13,2.75-1.24,4.81h7.77c0.11-2.14-0.11-3.76-0.68-4.87
			C199.54,32.4,198.66,31.84,197.46,31.84z"/>
		<path class="st0" d="M226,33.53c-0.9-0.34-1.73-0.51-2.48-0.51c-1.01,0-1.89,0.28-2.62,0.84c-0.73,0.56-1.23,1.35-1.49,2.36v18.8
			h-6.7V26.89h5.12l0.79,3.38h0.23c0.49-1.24,1.19-2.2,2.11-2.9c0.92-0.69,1.98-1.04,3.18-1.04c0.9,0,1.78,0.19,2.65,0.56L226,33.53
			z"/>
		<path class="st0" d="M230.45,18.95c0-1.13,0.36-2.06,1.07-2.79c0.71-0.73,1.73-1.1,3.04-1.1c1.31,0,2.36,0.36,3.15,1.07
			c0.79,0.71,1.18,1.65,1.18,2.81c0,1.16-0.39,2.08-1.18,2.76c-0.79,0.68-1.84,1.01-3.15,1.01c-1.31,0-2.33-0.35-3.04-1.04
			C230.8,20.99,230.45,20.08,230.45,18.95z M231.18,26.89h6.7v28.15h-6.7V26.89z"/>
		<path class="st0" d="M261.3,53.52c-0.94,0.75-2.06,1.31-3.38,1.69c-1.31,0.38-2.63,0.56-3.94,0.56c-1.91,0-3.52-0.35-4.81-1.04
			s-2.36-1.69-3.18-2.98c-0.83-1.29-1.42-2.85-1.77-4.67c-0.36-1.82-0.54-3.86-0.54-6.11c0-4.92,0.88-8.61,2.65-11.09
			c1.76-2.48,4.35-3.72,7.77-3.72c1.69,0,3.07,0.15,4.14,0.45c1.07,0.3,2.02,0.68,2.84,1.13l-1.58,5.57
			c-0.68-0.34-1.32-0.59-1.94-0.76s-1.36-0.25-2.22-0.25c-1.58,0-2.76,0.69-3.55,2.06c-0.79,1.37-1.18,3.57-1.18,6.62
			c0,2.55,0.4,4.64,1.21,6.25c0.81,1.61,2.09,2.42,3.86,2.42c0.94,0,1.74-0.12,2.39-0.37c0.66-0.24,1.27-0.55,1.83-0.93L261.3,53.52
			z"/>
		<path class="st0" d="M274.08,43.39h-1.58v11.65h-6.7V15.63h6.7v23.25l1.35-0.79l4.67-11.2h7.26l-5.18,11.15l-2.42,1.91l2.65,1.91
			l5.74,13.17h-7.54L274.08,43.39z"/>
		<path class="st0" d="M319.91,38.38h-10.75v16.66h-7.09V15.63h7.09v16.21h10.75V15.63H327v39.41h-7.09V38.38z"/>
		<path class="st0" d="M332.35,40.97c0-4.99,0.98-8.71,2.93-11.15c1.95-2.44,4.67-3.66,8.16-3.66c3.75,0,6.55,1.24,8.39,3.72
			s2.76,6.17,2.76,11.09c0,5.03-0.98,8.75-2.93,11.17c-1.95,2.42-4.69,3.63-8.22,3.63C336.04,55.77,332.35,50.84,332.35,40.97z
			 M339.27,40.97c0,2.81,0.32,4.99,0.96,6.53c0.64,1.54,1.71,2.31,3.21,2.31c1.43,0,2.49-0.67,3.18-2c0.69-1.33,1.04-3.61,1.04-6.84
			c0-2.89-0.32-5.09-0.96-6.59c-0.64-1.5-1.73-2.25-3.27-2.25c-1.31,0-2.34,0.67-3.07,2C339.64,35.46,339.27,37.74,339.27,40.97z"/>
		<path class="st0" d="M373.11,33.53c-0.9-0.34-1.73-0.51-2.48-0.51c-1.01,0-1.89,0.28-2.62,0.84c-0.73,0.56-1.23,1.35-1.49,2.36
			v18.8h-6.7V26.89h5.12l0.79,3.38h0.23c0.49-1.24,1.19-2.2,2.11-2.9c0.92-0.69,1.98-1.04,3.18-1.04c0.9,0,1.78,0.19,2.65,0.56
			L373.11,33.53z"/>
		<path class="st0" d="M391.69,55.04V37.93c0-2.06-0.24-3.51-0.73-4.33c-0.49-0.83-1.31-1.24-2.48-1.24c-0.98,0-1.82,0.3-2.53,0.9
			c-0.71,0.6-1.22,1.35-1.52,2.25v19.54h-6.7V26.89h5.35l0.79,3.27h0.17c0.68-1.09,1.59-2.02,2.76-2.79
			c1.16-0.77,2.68-1.15,4.56-1.15c1.13,0,2.13,0.17,3.01,0.51c0.88,0.34,1.62,0.89,2.22,1.66c0.6,0.77,1.05,1.8,1.35,3.1
			c0.3,1.29,0.45,2.9,0.45,4.81v18.75H391.69z"/>
		<path class="st0" d="M423.44,52.96c-0.94,0.83-2.21,1.5-3.83,2.03c-1.61,0.53-3.3,0.79-5.07,0.79c-1.95,0-3.63-0.34-5.04-1.01
			c-1.41-0.68-2.56-1.65-3.46-2.93c-0.9-1.27-1.57-2.82-2-4.64c-0.43-1.82-0.65-3.89-0.65-6.22c0-5.07,1-8.81,3.01-11.23
			c2.01-2.42,4.79-3.63,8.36-3.63c1.2,0,2.36,0.18,3.49,0.53c1.13,0.36,2.13,0.96,3.01,1.8c0.88,0.84,1.6,1.97,2.14,3.38
			c0.54,1.41,0.82,3.18,0.82,5.32c0,0.83-0.05,1.71-0.14,2.65c-0.09,0.94-0.24,1.95-0.42,3.04h-13.68c0.08,2.33,0.56,4.11,1.46,5.35
			c0.9,1.24,2.35,1.86,4.33,1.86c1.2,0,2.3-0.19,3.29-0.56c0.99-0.37,1.75-0.77,2.28-1.18L423.44,52.96z M414.66,31.84
			c-1.43,0-2.5,0.57-3.21,1.72c-0.71,1.15-1.13,2.75-1.24,4.81h7.77c0.11-2.14-0.11-3.76-0.68-4.87
			C416.74,32.4,415.86,31.84,414.66,31.84z"/>
	</g>
	<g>
		<path class="st1" d="M106.42,73.98c0.46-0.11,0.95-0.18,1.48-0.22c0.53-0.04,1.05-0.05,1.57-0.05c0.55,0,1.11,0.05,1.68,0.16
			s1.09,0.31,1.56,0.59c0.47,0.29,0.85,0.68,1.14,1.19s0.44,1.15,0.44,1.93c0,0.77-0.14,1.42-0.41,1.94
			c-0.28,0.53-0.64,0.96-1.1,1.29s-0.98,0.57-1.57,0.71c-0.59,0.14-1.19,0.22-1.82,0.22c-0.06,0-0.16,0-0.3,0
			c-0.14,0-0.28,0-0.43-0.01c-0.15-0.01-0.3-0.02-0.44-0.03c-0.14-0.01-0.25-0.02-0.31-0.04v4.79h-1.49V73.98z M109.5,75
			c-0.31,0-0.61,0.01-0.9,0.02s-0.52,0.04-0.68,0.09v5.22c0.06,0.02,0.16,0.04,0.29,0.04c0.13,0.01,0.27,0.01,0.41,0.02
			c0.14,0.01,0.28,0.01,0.41,0.01s0.23,0,0.29,0c0.41,0,0.81-0.04,1.21-0.12c0.4-0.08,0.77-0.22,1.09-0.42
			c0.32-0.2,0.58-0.49,0.78-0.86c0.2-0.37,0.3-0.85,0.3-1.42c0-0.49-0.09-0.9-0.28-1.23c-0.19-0.33-0.43-0.59-0.74-0.79
			c-0.31-0.2-0.65-0.34-1.04-0.42S109.88,75,109.5,75z"/>
		<path class="st1" d="M118.71,80.15c0-2.1,0.44-3.71,1.33-4.83s2.15-1.68,3.8-1.68c0.89,0,1.66,0.16,2.3,0.47
			c0.65,0.31,1.18,0.75,1.61,1.32c0.43,0.57,0.74,1.25,0.95,2.05s0.31,1.69,0.31,2.67c0,2.1-0.45,3.71-1.34,4.83
			c-0.89,1.12-2.17,1.68-3.83,1.68c-0.88,0-1.63-0.16-2.28-0.47c-0.64-0.31-1.18-0.75-1.6-1.32c-0.43-0.57-0.74-1.25-0.94-2.05
			C118.81,82.03,118.71,81.14,118.71,80.15z M120.29,80.15c0,0.7,0.07,1.36,0.21,1.98c0.14,0.62,0.35,1.17,0.64,1.65
			c0.29,0.47,0.66,0.85,1.11,1.13s0.98,0.42,1.59,0.42c1.12,0,1.99-0.42,2.63-1.27c0.64-0.85,0.95-2.15,0.95-3.92
			c0-0.68-0.07-1.34-0.21-1.97c-0.14-0.63-0.35-1.18-0.65-1.66c-0.29-0.47-0.67-0.85-1.12-1.13c-0.45-0.28-0.99-0.42-1.61-0.42
			c-1.1,0-1.97,0.42-2.6,1.27S120.29,78.39,120.29,80.15z"/>
		<path class="st1" d="M134.6,73.85h6.86v1.33h-5.36v4.12h4.91v1.33h-4.91v4.48h5.45v1.33h-6.95V73.85z"/>
		<path class="st1" d="M155.45,75.19h-3.92v11.27h-1.49V75.19h-3.92v-1.33h9.34V75.19z"/>
		<path class="st1" d="M170.6,81.62l-2.88,4.11l-0.94-0.76l1.73-2.6l0.88-0.74l-0.88-0.65l-1.84-2.53l0.94-0.77L170.6,81.62z
			 M173.88,81.62L171,85.77l-0.97-0.78l1.76-2.62l0.86-0.74l-0.86-0.65l-1.87-2.55l0.95-0.79L173.88,81.62z"/>
		<path class="st1" d="M192.72,83.25c0-0.5-0.15-0.92-0.45-1.23c-0.3-0.32-0.67-0.6-1.12-0.85c-0.45-0.25-0.94-0.48-1.47-0.69
			c-0.53-0.22-1.02-0.48-1.47-0.78c-0.45-0.31-0.83-0.68-1.12-1.13c-0.3-0.45-0.45-1.02-0.45-1.72c0-0.98,0.34-1.76,1.03-2.34
			c0.68-0.58,1.66-0.86,2.92-0.86c0.73,0,1.4,0.05,2,0.16c0.6,0.11,1.07,0.25,1.4,0.41l-0.45,1.33c-0.28-0.14-0.68-0.27-1.21-0.39
			c-0.53-0.12-1.14-0.19-1.81-0.19c-0.79,0-1.39,0.18-1.78,0.53c-0.4,0.35-0.59,0.77-0.59,1.25c0,0.47,0.15,0.86,0.45,1.17
			c0.3,0.31,0.67,0.59,1.12,0.84c0.45,0.25,0.94,0.49,1.47,0.73s1.02,0.52,1.47,0.84s0.83,0.7,1.12,1.14c0.3,0.44,0.45,1,0.45,1.66
			c0,0.54-0.1,1.03-0.29,1.46s-0.47,0.8-0.85,1.12s-0.82,0.55-1.35,0.72c-0.53,0.17-1.13,0.25-1.8,0.25c-0.9,0-1.64-0.07-2.23-0.21
			c-0.59-0.14-1.04-0.29-1.37-0.46l0.5-1.33c0.28,0.15,0.68,0.3,1.22,0.45s1.15,0.22,1.82,0.22c0.4,0,0.77-0.04,1.12-0.12
			c0.35-0.08,0.65-0.2,0.9-0.38c0.25-0.17,0.45-0.39,0.6-0.66C192.65,83.92,192.72,83.61,192.72,83.25z"/>
		<path class="st1" d="M199.66,73.98c0.46-0.11,0.95-0.18,1.48-0.22c0.53-0.04,1.05-0.05,1.57-0.05c0.55,0,1.11,0.05,1.68,0.16
			s1.09,0.31,1.56,0.59c0.47,0.29,0.85,0.68,1.14,1.19s0.44,1.15,0.44,1.93c0,0.77-0.14,1.42-0.41,1.94
			c-0.28,0.53-0.64,0.96-1.1,1.29s-0.98,0.57-1.57,0.71c-0.59,0.14-1.19,0.22-1.82,0.22c-0.06,0-0.16,0-0.3,0
			c-0.14,0-0.28,0-0.43-0.01c-0.15-0.01-0.3-0.02-0.44-0.03c-0.14-0.01-0.25-0.02-0.31-0.04v4.79h-1.49V73.98z M202.73,75
			c-0.31,0-0.61,0.01-0.9,0.02s-0.52,0.04-0.68,0.09v5.22c0.06,0.02,0.16,0.04,0.29,0.04c0.13,0.01,0.27,0.01,0.41,0.02
			c0.14,0.01,0.28,0.01,0.41,0.01s0.23,0,0.29,0c0.41,0,0.81-0.04,1.21-0.12c0.4-0.08,0.77-0.22,1.09-0.42
			c0.32-0.2,0.58-0.49,0.78-0.86c0.2-0.37,0.3-0.85,0.3-1.42c0-0.49-0.09-0.9-0.28-1.23c-0.19-0.33-0.43-0.59-0.74-0.79
			c-0.31-0.2-0.65-0.34-1.04-0.42S203.12,75,202.73,75z"/>
		<path class="st1" d="M212.78,73.85h6.86v1.33h-5.36v4.12h4.91v1.33h-4.91v4.48h5.45v1.33h-6.95V73.85z"/>
		<path class="st1" d="M231.47,82.96h-4.62l-1.25,3.49h-1.49l4.77-12.8h0.68l4.79,12.8h-1.58L231.47,82.96z M227.33,81.66h3.69
			l-1.4-3.83l-0.45-1.91h-0.02l-0.45,1.94L227.33,81.66z"/>
		<path class="st1" d="M241.41,80.62h-0.85v5.83h-1.49v-12.6h1.49v5.87l0.81-0.25l4.23-5.62h1.73l-4.21,5.42l-0.76,0.59l0.92,0.72
			l4.61,5.87H246L241.41,80.62z"/>
		<path class="st1" d="M253.11,73.85h6.86v1.33h-5.36v4.12h4.91v1.33h-4.91v4.48h5.45v1.33h-6.95V73.85z"/>
		<path class="st1" d="M265.82,73.98c0.46-0.08,0.98-0.15,1.58-0.2c0.59-0.05,1.14-0.07,1.63-0.07c0.55,0,1.08,0.06,1.57,0.18
			c0.5,0.12,0.94,0.32,1.31,0.59s0.68,0.64,0.91,1.08c0.23,0.44,0.34,0.98,0.34,1.62c0,0.98-0.27,1.78-0.81,2.39
			c-0.54,0.61-1.22,1.02-2.05,1.22l0.86,0.67l3.13,4.99h-1.75l-3.47-5.44l-1.76-0.27v5.71h-1.49V73.98z M269.06,75
			c-0.16,0-0.32,0-0.49,0s-0.33,0.01-0.49,0.02s-0.3,0.02-0.44,0.04c-0.14,0.01-0.25,0.03-0.33,0.05v4.64h1.4
			c0.83,0,1.51-0.2,2.05-0.61c0.54-0.41,0.81-1.04,0.81-1.91c0-0.65-0.22-1.18-0.67-1.6C270.47,75.21,269.85,75,269.06,75z"/>
		<path class="st1" d="M290.55,81.62l-2.88,4.11l-0.94-0.76l1.73-2.6l0.88-0.74l-0.88-0.65l-1.84-2.53l0.94-0.77L290.55,81.62z
			 M293.83,81.62l-2.88,4.15l-0.97-0.78l1.76-2.62l0.86-0.74l-0.86-0.65l-1.87-2.55l0.95-0.79L293.83,81.62z"/>
		<path class="st1" d="M312.39,82.96h-4.62l-1.25,3.49h-1.49l4.77-12.8h0.68l4.79,12.8h-1.58L312.39,82.96z M308.25,81.66h3.69
			l-1.4-3.83l-0.45-1.91h-0.02l-0.45,1.94L308.25,81.66z"/>
		<path class="st1" d="M320,73.85c0.23-0.04,0.48-0.06,0.76-0.08c0.28-0.02,0.58-0.03,0.88-0.04c0.31-0.01,0.61-0.01,0.9-0.02
			c0.29-0.01,0.57-0.01,0.82-0.01c1.01,0,1.88,0.16,2.62,0.47c0.74,0.31,1.35,0.75,1.83,1.31c0.48,0.56,0.84,1.23,1.07,2.01
			s0.35,1.64,0.35,2.57c0,0.85-0.11,1.67-0.33,2.46c-0.22,0.79-0.57,1.48-1.05,2.09c-0.48,0.61-1.1,1.09-1.87,1.46
			s-1.7,0.55-2.79,0.55c-0.19,0-0.44,0-0.75-0.01c-0.31-0.01-0.62-0.02-0.94-0.04c-0.32-0.02-0.62-0.03-0.9-0.04
			c-0.28-0.01-0.47-0.03-0.59-0.05V73.85z M323.4,75.04c-0.16,0-0.33,0-0.51,0c-0.19,0-0.37,0.01-0.55,0.02
			c-0.18,0.01-0.34,0.02-0.5,0.04c-0.15,0.01-0.27,0.02-0.35,0.04v10.08c0.06,0.01,0.17,0.02,0.34,0.03s0.34,0.01,0.52,0.02
			c0.18,0.01,0.35,0.01,0.52,0.02s0.28,0.01,0.34,0.01c0.84,0,1.54-0.14,2.12-0.43c0.57-0.29,1.03-0.68,1.37-1.16
			c0.34-0.49,0.58-1.04,0.73-1.67c0.14-0.63,0.22-1.28,0.22-1.95c0-0.59-0.07-1.18-0.2-1.77c-0.13-0.59-0.36-1.13-0.68-1.61
			c-0.32-0.48-0.76-0.87-1.3-1.18S324.23,75.04,323.4,75.04z"/>
		<path class="st1" d="M337.64,82.51l0.43,1.91h0.02l0.47-1.94l3.04-8.62h1.49l-4.77,12.8h-0.67l-4.86-12.8h1.64L337.64,82.51z"/>
		<path class="st1" d="M346.66,80.15c0-2.1,0.44-3.71,1.33-4.83s2.15-1.68,3.8-1.68c0.89,0,1.66,0.16,2.3,0.47
			c0.65,0.31,1.18,0.75,1.61,1.32c0.43,0.57,0.74,1.25,0.95,2.05s0.31,1.69,0.31,2.67c0,2.1-0.45,3.71-1.34,4.83
			s-2.17,1.68-3.83,1.68c-0.88,0-1.63-0.16-2.28-0.47c-0.64-0.31-1.18-0.75-1.6-1.32c-0.43-0.57-0.74-1.25-0.94-2.05
			C346.76,82.03,346.66,81.14,346.66,80.15z M348.24,80.15c0,0.7,0.07,1.36,0.21,1.98c0.14,0.62,0.35,1.17,0.64,1.65
			c0.29,0.47,0.66,0.85,1.11,1.13s0.98,0.42,1.59,0.42c1.12,0,1.99-0.42,2.63-1.27c0.64-0.85,0.95-2.15,0.95-3.92
			c0-0.68-0.07-1.34-0.21-1.97c-0.14-0.63-0.35-1.18-0.65-1.66c-0.29-0.47-0.67-0.85-1.12-1.13c-0.45-0.28-0.99-0.42-1.61-0.42
			c-1.1,0-1.97,0.42-2.6,1.27S348.24,78.39,348.24,80.15z"/>
		<path class="st1" d="M370.61,85.93c-0.36,0.28-0.82,0.47-1.37,0.58c-0.55,0.11-1.14,0.16-1.76,0.16c-0.76,0-1.46-0.13-2.12-0.39
			s-1.24-0.65-1.73-1.18c-0.49-0.53-0.88-1.2-1.17-2.03c-0.29-0.82-0.43-1.8-0.43-2.92c0-1.18,0.16-2.17,0.48-3
			c0.32-0.82,0.74-1.49,1.26-2.02c0.52-0.52,1.11-0.9,1.75-1.14s1.31-0.36,1.98-0.36c0.72,0,1.31,0.04,1.76,0.12
			s0.85,0.18,1.17,0.32l-0.36,1.33c-0.58-0.29-1.4-0.43-2.47-0.43c-0.49,0-0.98,0.09-1.46,0.27s-0.91,0.47-1.29,0.88
			s-0.68,0.94-0.91,1.6c-0.23,0.66-0.34,1.47-0.34,2.43c0,0.86,0.11,1.62,0.32,2.27c0.22,0.65,0.51,1.19,0.89,1.62
			s0.82,0.76,1.33,0.97c0.51,0.22,1.07,0.32,1.67,0.32c0.54,0,1.01-0.05,1.41-0.16c0.4-0.11,0.74-0.25,1.02-0.41L370.61,85.93z"/>
		<path class="st1" d="M381.37,82.96h-4.62l-1.25,3.49H374l4.77-12.8h0.68l4.79,12.8h-1.58L381.37,82.96z M377.23,81.66h3.69
			l-1.4-3.83l-0.45-1.91h-0.02l-0.45,1.94L377.23,81.66z"/>
		<path class="st1" d="M395.91,75.19h-3.92v11.27h-1.49V75.19h-3.92v-1.33h9.34V75.19z"/>
		<path class="st1" d="M400.82,73.85h6.86v1.33h-5.36v4.12h4.91v1.33h-4.91v4.48h5.45v1.33h-6.95V73.85z"/>
	</g>
</g>
<g>
	<path class="st2" d="M9.75,90.86c-0.38,0.38-0.8,0.7-1.24,0.96h34.93c0.56-7.85,1.59-19.81,3.4-33.73
		C33.36,69.02,19.73,80.79,9.75,90.86z M29.42,81.98c1.93,0,3.49,1.56,3.49,3.49c0,1.93-1.56,3.49-3.49,3.49
		c-1.93,0-3.49-1.56-3.49-3.49C25.93,83.55,27.49,81.98,29.42,81.98z"/>
	<path class="st2" d="M76.44,27.02c4.52-2.92,9.12-5.71,13.77-8.29v-5.52c0-3.86-3.13-6.99-6.99-6.99h-2.3
		C79.72,11.52,78.14,18.76,76.44,27.02z"/>
	<path class="st2" d="M66.07,42.99c-3.68,2.8-7.54,5.79-11.47,8.9c-2.49,14.07-4.61,28.45-5.39,39.94h11.28
		C61.25,81.25,62.86,63.21,66.07,42.99z"/>
	<path class="st2" d="M20.61,14.79c0.35-2.19,2.47-3.64,4.64-3.14l0.06,0.01c2.06,0.48,3.35,2.53,2.86,4.59
		C25.19,28.96,15.23,70.39,9.38,82.09c0,0,16.21-16.68,38.97-34.78c1.97-13.09,4.61-27.29,8.14-41.1H11.65
		c-3.89,0-7.05,3.16-7.05,7.05v56.35C10.47,52.81,18.43,28.55,20.61,14.79z"/>
	<path class="st2" d="M74.5,36.67C70.91,55,67.33,76.12,66.27,91.83h16.94c3.86,0,6.99-3.13,6.99-6.99V25.59
		C86.35,28.11,80.88,31.96,74.5,36.67z M81.11,86.4c-1.93,0-3.49-1.56-3.49-3.49c0-1.93,1.56-3.49,3.49-3.49
		c1.93,0,3.49,1.56,3.49,3.49C84.61,84.84,83.04,86.4,81.11,86.4z"/>
	<path class="st2" d="M63.86,6.22c-1.83,8.12-4.58,20.8-7.24,34.69c3.62-2.73,7.35-5.45,11.18-8.11c1.59-8.76,3.48-17.75,5.74-26.58
		H63.86z"/>
</g>
</svg>
