<svg id="Layer_1_copy" data-name="Layer 1 copy" xmlns="http://www.w3.org/2000/svg" viewBox="0 0 378.25 215.93"><defs><style>.cls-1{fill:#095540;}.cls-2{fill:#ffc629;}</style></defs><title>new-logo</title><path class="cls-1" d="M108.12,99.2V101q-4.47,1.17-6.31,7.83L86.73,163.37H85.45L71.56,117,58.87,163.37H57.59L40.67,106.76c-1.12-3.72-3-5.64-5.51-5.76V99.2q3.27.27,8.54.27c3.83,0,6.71-.09,8.62-.27V101a5.66,5.66,0,0,0-3,.9,2.73,2.73,0,0,0-.88,2.25,17.25,17.25,0,0,0,.88,4.41L60.94,148.7l9.74-34.83-2.15-7.11q-1.61-5.58-4.71-5.76V99.2q2.87.27,7.74.27c4.58,0,8-.09,10.22-.27V101a12.31,12.31,0,0,0-4.23.76,2.48,2.48,0,0,0-1.2,2.48,16.26,16.26,0,0,0,.8,4.32l11.49,40.05,9.82-34.83a27.39,27.39,0,0,0,1.28-7.29c0-2-.54-3.38-1.6-4.19S95.35,101.06,93,101V99.2q4.56.27,9.18.27A55,55,0,0,0,108.12,99.2Z" transform="translate(-17.94 -10.98)"/><path class="cls-1" d="M156.33,161.12v1.8c-2.13-.18-5-.27-8.54-.27-4.58,0-8,.09-10.22.27v-1.8a11.66,11.66,0,0,0,4.35-.86,2.52,2.52,0,0,0,1.32-2.47,13.64,13.64,0,0,0-1-4.23l-4.87-14.76H118.1l-3.28,9.54a26.18,26.18,0,0,0-1.59,7.38,4.7,4.7,0,0,0,1.71,4.05,9.28,9.28,0,0,0,5.23,1.35v1.8q-4.55-.27-9.18-.27a54.82,54.82,0,0,0-6,.27v-1.8q4-1.08,6.3-7.83l18.76-54.54h1.28l19.47,56.61Q152.74,160.94,156.33,161.12ZM136.78,137l-8.94-26.91L118.74,137Z" transform="translate(-17.94 -10.98)"/><path class="cls-1" d="M189.14,101a14.18,14.18,0,0,0-4.19.72,3.09,3.09,0,0,0-1.8,2.07,18.18,18.18,0,0,0-.48,4.95v44.64a18.18,18.18,0,0,0,.48,5,2.94,2.94,0,0,0,1.8,2,12.8,12.8,0,0,0,4.19.5H195q4.95,0,7.55-1.58a9.09,9.09,0,0,0,3.79-5.08A44.71,44.71,0,0,0,208.05,144h1.84q-.24,2.79-.24,7.38,0,5.13.56,11.52-5.43-.27-18.28-.27-15.33,0-23.15.27v-1.8a14.18,14.18,0,0,0,4.19-.72,3.09,3.09,0,0,0,1.8-2.07,18.18,18.18,0,0,0,.48-5V108.74a18.18,18.18,0,0,0-.48-4.95,3.09,3.09,0,0,0-1.8-2.07,14.18,14.18,0,0,0-4.19-.72V99.2c2.24.18,5.64.27,10.22.27q6.39,0,10.14-.27Z" transform="translate(-17.94 -10.98)"/><path class="cls-1" d="M243.93,99.06a20.12,20.12,0,0,1,4.19,2.48,5.4,5.4,0,0,0,2.71,1.26c.48,0,.85-.32,1.12-1a12.11,12.11,0,0,0,.64-3h1.83q-.39,5.22-.4,18.36h-1.83a25.38,25.38,0,0,0-3.71-12.29,10.5,10.5,0,0,0-9.38-5,9.15,9.15,0,0,0-7,2.92,10.62,10.62,0,0,0-2.71,7.52,12,12,0,0,0,1.4,5.94,15,15,0,0,0,3.55,4.32q2.15,1.8,6.14,4.59l2.32,1.62a80.43,80.43,0,0,1,7.94,6.16,21.44,21.44,0,0,1,4.67,6.08,17.32,17.32,0,0,1,1.76,8q0,8.19-4.79,12.64a17.13,17.13,0,0,1-12.13,4.46,18.34,18.34,0,0,1-6.27-.9,21.43,21.43,0,0,1-4.67-2.43,5.43,5.43,0,0,0-2.71-1.26c-.48,0-.86.31-1.12.94a11.77,11.77,0,0,0-.64,3H223q.33-5,.32-21.6h1.84q.56,9.09,4,14.76t10.54,5.67a10,10,0,0,0,7.34-3q3-3,3-9a12.7,12.7,0,0,0-3-8.55,49,49,0,0,0-9.46-7.92,88.48,88.48,0,0,1-7.62-5.76,20,20,0,0,1-4.75-6.08,17.81,17.81,0,0,1-1.84-8.32q0-7.56,4.31-11.57a15.13,15.13,0,0,1,10.7-4A14.7,14.7,0,0,1,243.93,99.06Z" transform="translate(-17.94 -10.98)"/><path class="cls-1" d="M315.8,159.18c1.09.87,5.43,1.52,7,1.94v1.8c-2.55-.18-8.75-.27-12.58-.27q-4.31,0-8.22.27v-1.8a7.17,7.17,0,0,0,2.79-.54,1.44,1.44,0,0,0,.88-1.35,4.28,4.28,0,0,0-.8-2.16l-11.65-19.8a18.86,18.86,0,0,0-3.91-5.18,8.14,8.14,0,0,0-4.47-1.39v22.68a18.18,18.18,0,0,0,.48,5,3.08,3.08,0,0,0,1.79,2.07,14.31,14.31,0,0,0,4.19.72v1.8q-3.66-.27-10.13-.27-6.87,0-10.22.27v-1.8a14.31,14.31,0,0,0,4.19-.72,3.09,3.09,0,0,0,1.8-2.07,18.7,18.7,0,0,0,.47-5V108.74a18.7,18.7,0,0,0-.47-4.95,3.09,3.09,0,0,0-1.8-2.07A14.31,14.31,0,0,0,271,101V99.2q3.34.27,10.22.27,6.38,0,10.13-.27V101a14.31,14.31,0,0,0-4.19.72,3.08,3.08,0,0,0-1.79,2.07,18.18,18.18,0,0,0-.48,4.95V128.9a11.12,11.12,0,0,0,9.1-5l7.66-11q4.06-5.67,4.07-8.64,0-3.15-4.95-3.24V99.2q4.56.27,9.18.27c2.93,0,8.19-.09,9.79-.27V101c-1.76.3-6.41.94-8,1.93a16.21,16.21,0,0,0-4.47,4.64l-13,18.81,18.51,29.25A13.29,13.29,0,0,0,315.8,159.18Z" transform="translate(-17.94 -10.98)"/><path class="cls-1" d="M379.43,99.2V101c-1.06.3-6.1,1.06-7.11,2.29a26.8,26.8,0,0,0-3.27,5.72l-12.54,28v16.38a18.18,18.18,0,0,0,.48,5,3.09,3.09,0,0,0,1.8,2.07,14.24,14.24,0,0,0,4.19.72v1.8q-3.68-.27-10.14-.27c-4.57,0-8,.09-10.21.27v-1.8a14.31,14.31,0,0,0,4.19-.72,3.1,3.1,0,0,0,1.79-2.07,18.18,18.18,0,0,0,.48-5v-13.5l-16.2-33.75a15,15,0,0,0-2.52-4,3.11,3.11,0,0,0-2.11-1V99.2q3.11.27,7,.27,7.74,0,11.18-.27v1.89q-5.59,0-5.59,3.42a8,8,0,0,0,.8,3.15l13.25,28.71,10.22-22.86a20.14,20.14,0,0,0,2.15-7.74,3.9,3.9,0,0,0-1.76-3.6,10.74,10.74,0,0,0-5.26-1.17V99.2q4.55.27,9.18.27C371.84,99.47,377.84,99.38,379.43,99.2Z" transform="translate(-17.94 -10.98)"/><path class="cls-1" d="M24.74,198.29a3.69,3.69,0,0,0-1.08.18.73.73,0,0,0-.45.5,4.39,4.39,0,0,0-.12,1.21v10.91a4.29,4.29,0,0,0,.12,1.21.77.77,0,0,0,.45.51,3.69,3.69,0,0,0,1.08.18v.44c-.79-.05-1.9-.07-3.32-.07-1.57,0-2.73,0-3.48.07V213a3.75,3.75,0,0,0,1.07-.18.76.76,0,0,0,.46-.51,4.29,4.29,0,0,0,.12-1.21V200.18a4.39,4.39,0,0,0-.12-1.21.72.72,0,0,0-.46-.5,3.75,3.75,0,0,0-1.07-.18v-.44c.75,0,1.91.07,3.48.07,1.42,0,2.53,0,3.32-.07Z" transform="translate(-17.94 -10.98)"/><path class="cls-1" d="M44.12,198.29a2.32,2.32,0,0,0-1.06.37,1.39,1.39,0,0,0-.47.84,8.89,8.89,0,0,0-.12,1.69v12.28l-.53,0-.59,0-9.55-12.1v8.45a10.55,10.55,0,0,0,.13,1.9,1.3,1.3,0,0,0,.58.88,3.71,3.71,0,0,0,1.43.39v.44c-.58-.05-1.37-.07-2.38-.07-.81,0-1.44,0-1.91.07V213a2.31,2.31,0,0,0,1.06-.38,1.32,1.32,0,0,0,.46-.83,8,8,0,0,0,.13-1.7v-9.9a4,4,0,0,0-.13-1.21.72.72,0,0,0-.46-.5,3.66,3.66,0,0,0-1.06-.18v-.44c.47,0,1.1.07,1.91.07s1.36,0,1.89-.07L42,208.34v-6.88a9.44,9.44,0,0,0-.14-1.9,1.24,1.24,0,0,0-.57-.88,3.39,3.39,0,0,0-1.43-.39v-.44c.57,0,1.37.07,2.38.07.82,0,1.46,0,1.91-.07Z" transform="translate(-17.94 -10.98)"/><path class="cls-1" d="M63.09,197.85v.44a2.53,2.53,0,0,0-1.08.84,6.1,6.1,0,0,0-.95,1.78l-4.64,12.56-.77,0-.75,0L49.29,199.7a2.68,2.68,0,0,0-.66-1.06,1.27,1.27,0,0,0-.72-.35v-.44c.88,0,2,.07,3.34.07,1.51,0,2.62,0,3.34-.07v.44a3.78,3.78,0,0,0-1.18.2.6.6,0,0,0-.36.61,3,3,0,0,0,.27,1L57.19,210l2.71-7.3a8.39,8.39,0,0,0,.61-2.68,1.59,1.59,0,0,0-.47-1.28,2.31,2.31,0,0,0-1.38-.44v-.44c1,0,1.92.07,2.75.07S62.65,197.89,63.09,197.85Z" transform="translate(-17.94 -10.98)"/><path class="cls-1" d="M79.23,213.43c-1-.05-2.67-.07-5-.07q-4.8,0-7.18.07V213a3.75,3.75,0,0,0,1.07-.18.76.76,0,0,0,.46-.51,4.29,4.29,0,0,0,.12-1.21V200.18a4.39,4.39,0,0,0-.12-1.21.72.72,0,0,0-.46-.5,3.75,3.75,0,0,0-1.07-.18v-.44c1.59,0,4,.07,7.18.07,2.15,0,3.68,0,4.59-.07-.1,1.22-.15,2.3-.15,3.26a11.44,11.44,0,0,0,.07,1.49H78.2A6.29,6.29,0,0,0,77,199.3a3.1,3.1,0,0,0-2.42-.94h-.9a3,3,0,0,0-1,.11.63.63,0,0,0-.42.43,3.5,3.5,0,0,0-.11,1v5.45h.71a2,2,0,0,0,1.77-.85,5.47,5.47,0,0,0,.84-2.05H76c0,.62-.07,1.31-.07,2.07v1.05c0,.75,0,1.79.14,3.13h-.51c-.31-1.94-1.2-2.91-2.68-2.91h-.71v5.55a3.5,3.5,0,0,0,.11,1,.65.65,0,0,0,.42.43,3.31,3.31,0,0,0,1,.11h1.08a3.2,3.2,0,0,0,2.52-1.07,7.11,7.11,0,0,0,1.35-3.62h.51c-.05.49-.07,1.1-.07,1.85A30.69,30.69,0,0,0,79.23,213.43Z" transform="translate(-17.94 -10.98)"/><path class="cls-1" d="M91.71,197.78a7.05,7.05,0,0,1,1.38.64l.43.22a.78.78,0,0,0,.32.09.35.35,0,0,0,.31-.23,2.92,2.92,0,0,0,.18-.74h.5c-.07,1-.11,2.66-.11,5h-.5a7.32,7.32,0,0,0-.54-2.27,4.4,4.4,0,0,0-1.28-1.75,3,3,0,0,0-1.92-.67,2.47,2.47,0,0,0-1.75.61,2.08,2.08,0,0,0-.67,1.64,2.64,2.64,0,0,0,.33,1.34,3.58,3.58,0,0,0,.92,1c.4.32,1,.75,1.83,1.29l.7.48c.86.58,1.55,1.08,2,1.5a5.65,5.65,0,0,1,1.22,1.49,4,4,0,0,1,.47,2,3.78,3.78,0,0,1-.73,2.37,4.35,4.35,0,0,1-2,1.44,7.54,7.54,0,0,1-2.76.48,7.8,7.8,0,0,1-2-.22,6.42,6.42,0,0,1-1.5-.59,1.64,1.64,0,0,0-.75-.31.33.33,0,0,0-.3.23,2.33,2.33,0,0,0-.18.74h-.51q.09-1.38.09-5.94h.51a8.52,8.52,0,0,0,1.1,4,3.18,3.18,0,0,0,2.9,1.53,3,3,0,0,0,2-.64,2.23,2.23,0,0,0,.77-1.82,3,3,0,0,0-.79-2.11,12.55,12.55,0,0,0-2.51-2c-.88-.58-1.58-1.07-2.11-1.5a5.37,5.37,0,0,1-1.3-1.51,3.9,3.9,0,0,1-.51-2,3.71,3.71,0,0,1,.67-2.23,4,4,0,0,1,1.8-1.36,6.77,6.77,0,0,1,2.46-.44A6.43,6.43,0,0,1,91.71,197.78Z" transform="translate(-17.94 -10.98)"/><path class="cls-1" d="M113.86,201.59a15,15,0,0,0,.07,1.67h-.51a8.72,8.72,0,0,0-1.44-3.8,3.05,3.05,0,0,0-2.5-1.1H109v12.56a3.66,3.66,0,0,0,.18,1.34,1,1,0,0,0,.66.56,6.19,6.19,0,0,0,1.51.17v.44c-1.85-.05-3.24-.07-4.18-.07s-2.26,0-4,.07V213a6.09,6.09,0,0,0,1.5-.17,1,1,0,0,0,.66-.56,3.42,3.42,0,0,0,.19-1.34V198.36H105a3.3,3.3,0,0,0-1.8.46,3.66,3.66,0,0,0-1.26,1.53,11.85,11.85,0,0,0-.9,2.91h-.51c0-.42.07-1,.07-1.67,0-1.1-.06-2.35-.16-3.74,1.34,0,3.6.07,6.8.07s5.46,0,6.78-.07C113.91,199.24,113.86,200.49,113.86,201.59Z" transform="translate(-17.94 -10.98)"/><path class="cls-1" d="M136.59,198.47a.73.73,0,0,0-.45.5,4.39,4.39,0,0,0-.12,1.21v10.91a4.29,4.29,0,0,0,.12,1.21.76.76,0,0,0,.46.51,3.75,3.75,0,0,0,1.07.18v.44c-.81-.05-2-.07-3.46-.07s-2.73,0-3.47.07V213a4.29,4.29,0,0,0,1.15-.18.82.82,0,0,0,.5-.51,4.21,4.21,0,0,0,.13-1.21v-11.5l-5.3,13.86h-.36l-5.94-14.17v10.54a9.51,9.51,0,0,0,.14,1.9,1.26,1.26,0,0,0,.57.88,3.71,3.71,0,0,0,1.43.39v.44c-.57-.05-1.37-.07-2.38-.07-.81,0-1.44,0-1.91.07V213a2.31,2.31,0,0,0,1.06-.38,1.33,1.33,0,0,0,.47-.83,8.93,8.93,0,0,0,.12-1.7v-9.9a4.39,4.39,0,0,0-.12-1.21.74.74,0,0,0-.47-.5,3.66,3.66,0,0,0-1.06-.18v-.44c.47,0,1.1.07,1.91.07,1.35,0,2.51,0,3.48-.07l4.44,10.71,4.05-10.64h1.56c1.5,0,2.65,0,3.46-.07v.44A3.69,3.69,0,0,0,136.59,198.47Z" transform="translate(-17.94 -10.98)"/><path class="cls-1" d="M154.76,213.43c-1-.05-2.68-.07-5-.07q-4.8,0-7.17.07V213a3.81,3.81,0,0,0,1.07-.18.78.78,0,0,0,.46-.51,4.29,4.29,0,0,0,.12-1.21V200.18a4.39,4.39,0,0,0-.12-1.21.75.75,0,0,0-.46-.5,3.81,3.81,0,0,0-1.07-.18v-.44c1.58,0,4,.07,7.17.07,2.16,0,3.69,0,4.6-.07-.1,1.22-.16,2.3-.16,3.26a13.57,13.57,0,0,0,.07,1.49h-.5a6.29,6.29,0,0,0-1.19-3.3,3.1,3.1,0,0,0-2.42-.94h-.9a3,3,0,0,0-1,.11.63.63,0,0,0-.42.43,3.18,3.18,0,0,0-.11,1v5.45h.7a2,2,0,0,0,1.77-.85,5.33,5.33,0,0,0,.85-2.05h.51c-.05.62-.07,1.31-.07,2.07v1.05c0,.75,0,1.79.13,3.13h-.5c-.31-1.94-1.21-2.91-2.69-2.91h-.7v5.55a3.18,3.18,0,0,0,.11,1,.65.65,0,0,0,.42.43,3.26,3.26,0,0,0,1,.11h1.07a3.2,3.2,0,0,0,2.52-1.07,7,7,0,0,0,1.35-3.62h.51c0,.49-.06,1.1-.06,1.85A30.69,30.69,0,0,0,154.76,213.43Z" transform="translate(-17.94 -10.98)"/><path class="cls-1" d="M174.41,198.29a2.37,2.37,0,0,0-1.07.37,1.38,1.38,0,0,0-.46.84,8,8,0,0,0-.13,1.69v12.28l-.52,0-.6,0-9.55-12.1v8.45a9.51,9.51,0,0,0,.14,1.9,1.33,1.33,0,0,0,.57.88,3.71,3.71,0,0,0,1.43.39v.44c-.57-.05-1.37-.07-2.38-.07-.8,0-1.44,0-1.91.07V213a2.41,2.41,0,0,0,1.07-.38,1.37,1.37,0,0,0,.46-.83,8.93,8.93,0,0,0,.12-1.7v-9.9a4.39,4.39,0,0,0-.12-1.21.75.75,0,0,0-.46-.5,3.81,3.81,0,0,0-1.07-.18v-.44c.47,0,1.11.07,1.91.07s1.37,0,1.9-.07l8.51,10.49v-6.88a9.61,9.61,0,0,0-.13-1.9,1.28,1.28,0,0,0-.58-.88,3.33,3.33,0,0,0-1.42-.39v-.44c.57,0,1.36.07,2.37.07.82,0,1.46,0,1.92-.07Z" transform="translate(-17.94 -10.98)"/><path class="cls-1" d="M192.42,201.59a15,15,0,0,0,.07,1.67H192a8.72,8.72,0,0,0-1.44-3.8,3.05,3.05,0,0,0-2.5-1.1h-.5v12.56a3.42,3.42,0,0,0,.19,1.34,1,1,0,0,0,.66.56,6,6,0,0,0,1.5.17v.44c-1.85-.05-3.24-.07-4.18-.07s-2.26,0-4,.07V213a6,6,0,0,0,1.5-.17,1,1,0,0,0,.66-.56,3.42,3.42,0,0,0,.19-1.34V198.36h-.48a3.3,3.3,0,0,0-1.8.46,3.66,3.66,0,0,0-1.26,1.53,12.3,12.3,0,0,0-.9,2.91h-.51c0-.42.07-1,.07-1.67,0-1.1-.06-2.35-.16-3.74,1.34,0,3.6.07,6.8.07s5.46,0,6.78-.07C192.47,199.24,192.42,200.49,192.42,201.59Z" transform="translate(-17.94 -10.98)"/><path class="cls-1" d="M223.68,198.47a.73.73,0,0,0-.45.5,4.39,4.39,0,0,0-.12,1.21v10.91a4.29,4.29,0,0,0,.12,1.21.77.77,0,0,0,.47.51,3.66,3.66,0,0,0,1.06.18v.44c-.8-.05-2-.07-3.45-.07s-2.73,0-3.48.07V213a4.31,4.31,0,0,0,1.16-.18.8.8,0,0,0,.49-.51,3.87,3.87,0,0,0,.13-1.21v-11.5l-5.3,13.86H214L208,199.28v10.54a9.68,9.68,0,0,0,.13,1.9,1.33,1.33,0,0,0,.57.88,3.77,3.77,0,0,0,1.43.39v.44c-.57-.05-1.36-.07-2.37-.07-.81,0-1.45,0-1.92.07V213a2.36,2.36,0,0,0,1.07-.38,1.32,1.32,0,0,0,.46-.83,8.93,8.93,0,0,0,.12-1.7v-9.9a4.39,4.39,0,0,0-.12-1.21.72.72,0,0,0-.46-.5,3.75,3.75,0,0,0-1.07-.18v-.44c.47,0,1.11.07,1.92.07,1.35,0,2.51,0,3.47-.07l4.45,10.71,4.05-10.64h1.56c1.49,0,2.65,0,3.45-.07v.44A3.69,3.69,0,0,0,223.68,198.47Z" transform="translate(-17.94 -10.98)"/><path class="cls-1" d="M243,212.63a1.29,1.29,0,0,0,.73.36v.44c-.88-.05-2-.07-3.35-.07s-2.61,0-3.34.07V213a3.58,3.58,0,0,0,1.19-.21.6.6,0,0,0,.35-.59,3,3,0,0,0-.27-1.05L237,207.53H232.2l-.57,1.52a7.16,7.16,0,0,0-.62,2.44,1.24,1.24,0,0,0,.49,1.13A2.92,2.92,0,0,0,233,213v.44c-1-.05-1.91-.07-2.73-.07a15.35,15.35,0,0,0-1.67.07V213q1.08-.21,1.89-2.31l5-12.87.77,0,.74,0,5.35,13.77A2.71,2.71,0,0,0,243,212.63Zm-6.16-5.54-2.18-5.94-2.29,5.94Z" transform="translate(-17.94 -10.98)"/><path class="cls-1" d="M262.23,198.29a2.37,2.37,0,0,0-1.07.37,1.38,1.38,0,0,0-.46.84,8.89,8.89,0,0,0-.12,1.69v12.28l-.53,0-.59,0-9.55-12.1v8.45a9.68,9.68,0,0,0,.13,1.9,1.33,1.33,0,0,0,.57.88A3.77,3.77,0,0,0,252,213v.44c-.57-.05-1.36-.07-2.37-.07-.81,0-1.45,0-1.92.07V213a2.36,2.36,0,0,0,1.07-.38,1.32,1.32,0,0,0,.46-.83,8.93,8.93,0,0,0,.12-1.7v-9.9a4.39,4.39,0,0,0-.12-1.21.72.72,0,0,0-.46-.5,3.75,3.75,0,0,0-1.07-.18v-.44c.47,0,1.11.07,1.92.07s1.36,0,1.89-.07l8.51,10.49v-6.88a9.61,9.61,0,0,0-.13-1.9,1.3,1.3,0,0,0-.57-.88,3.43,3.43,0,0,0-1.43-.39v-.44c.57,0,1.36.07,2.37.07.82,0,1.46,0,1.92-.07Z" transform="translate(-17.94 -10.98)"/><path class="cls-1" d="M280.38,212.63a1.29,1.29,0,0,0,.72.36v.44c-.88-.05-2-.07-3.34-.07s-2.61,0-3.35.07V213a3.47,3.47,0,0,0,1.19-.21.6.6,0,0,0,.36-.59,3,3,0,0,0-.27-1.05l-1.32-3.61h-4.79l-.58,1.52a7.34,7.34,0,0,0-.61,2.44,1.24,1.24,0,0,0,.49,1.13,2.91,2.91,0,0,0,1.46.37v.44c-1-.05-1.9-.07-2.72-.07a15.23,15.23,0,0,0-1.67.07V213q1.07-.21,1.89-2.31l5-12.87.77,0,.75,0,5.35,13.77A2.71,2.71,0,0,0,280.38,212.63Zm-6.16-5.54L272,201.15l-2.29,5.94Z" transform="translate(-17.94 -10.98)"/><path class="cls-1" d="M295.57,197.92a8.4,8.4,0,0,1,1.84,1.05.8.8,0,0,0,.43.2c.15,0,.27-.11.36-.32a3.83,3.83,0,0,0,.2-1h.5c-.06,1-.09,2.77-.09,5.32h-.5a10.94,10.94,0,0,0-.52-2.42,3.61,3.61,0,0,0-1.13-1.56,3.94,3.94,0,0,0-1.3-.79,4.5,4.5,0,0,0-1.58-.28,3.43,3.43,0,0,0-2.57,1,6.33,6.33,0,0,0-1.5,2.76,13.53,13.53,0,0,0-.49,3.76c0,5.08,1.41,7.61,4.23,7.61a2.53,2.53,0,0,0,1.56-.44,1.09,1.09,0,0,0,.4-.46,1.61,1.61,0,0,0,.13-.68v-2.16a4.55,4.55,0,0,0-.18-1.5,1.07,1.07,0,0,0-.63-.65,4.71,4.71,0,0,0-1.42-.22v-.44c.91,0,2.17.06,3.77.06q1.95,0,2.94-.06v.44a1.66,1.66,0,0,0-.64.17.78.78,0,0,0-.27.51,6.73,6.73,0,0,0-.08,1.21v4.36h-.44a2.4,2.4,0,0,0-.18-.86c-.11-.27-.26-.4-.45-.4a3,3,0,0,0-1.19.46,7.24,7.24,0,0,1-3.61,1.1,7.79,7.79,0,0,1-5.83-2.07,8,8,0,0,1-2-5.85,8.91,8.91,0,0,1,1-4.33,7.25,7.25,0,0,1,2.83-2.9,8.1,8.1,0,0,1,4.11-1A6.22,6.22,0,0,1,295.57,197.92Z" transform="translate(-17.94 -10.98)"/><path class="cls-1" d="M316.9,213.43c-1-.05-2.68-.07-5-.07q-4.8,0-7.17.07V213a3.66,3.66,0,0,0,1.06-.18.8.8,0,0,0,.47-.51,4.29,4.29,0,0,0,.12-1.21V200.18a4.39,4.39,0,0,0-.12-1.21.76.76,0,0,0-.47-.5,3.66,3.66,0,0,0-1.06-.18v-.44c1.58,0,4,.07,7.17.07,2.15,0,3.69,0,4.6-.07-.11,1.22-.16,2.3-.16,3.26a13.57,13.57,0,0,0,.07,1.49h-.51a6.2,6.2,0,0,0-1.19-3.3,3.08,3.08,0,0,0-2.42-.94h-.9a3,3,0,0,0-1,.11.67.67,0,0,0-.42.43,3.5,3.5,0,0,0-.11,1v5.45h.71a2,2,0,0,0,1.77-.85,5.48,5.48,0,0,0,.85-2.05h.5q-.06.93-.06,2.07v1.05c0,.75,0,1.79.13,3.13h-.51c-.31-1.94-1.2-2.91-2.68-2.91h-.71v5.55a3.5,3.5,0,0,0,.11,1,.69.69,0,0,0,.42.43,3.36,3.36,0,0,0,1,.11h1.08a3.2,3.2,0,0,0,2.52-1.07,7,7,0,0,0,1.35-3.62h.51c-.05.49-.07,1.1-.07,1.85A28.06,28.06,0,0,0,316.9,213.43Z" transform="translate(-17.94 -10.98)"/><path class="cls-1" d="M339.89,198.47a.73.73,0,0,0-.45.5,4,4,0,0,0-.13,1.21v10.91a3.87,3.87,0,0,0,.13,1.21.76.76,0,0,0,.46.51A3.66,3.66,0,0,0,341,213v.44c-.8-.05-1.95-.07-3.45-.07s-2.73,0-3.48.07V213a4.31,4.31,0,0,0,1.16-.18.78.78,0,0,0,.49-.51,3.8,3.8,0,0,0,.14-1.21v-11.5l-5.31,13.86h-.35l-5.94-14.17v10.54a10.55,10.55,0,0,0,.13,1.9,1.3,1.3,0,0,0,.58.88,3.71,3.71,0,0,0,1.43.39v.44c-.58-.05-1.37-.07-2.38-.07-.81,0-1.44,0-1.91.07V213a2.31,2.31,0,0,0,1.06-.38,1.38,1.38,0,0,0,.47-.83,8.93,8.93,0,0,0,.12-1.7v-9.9a4.39,4.39,0,0,0-.12-1.21.76.76,0,0,0-.47-.5,3.66,3.66,0,0,0-1.06-.18v-.44c.47,0,1.1.07,1.91.07,1.35,0,2.51,0,3.48-.07l4.44,10.71L336,197.92h1.56c1.5,0,2.65,0,3.45-.07v.44A3.68,3.68,0,0,0,339.89,198.47Z" transform="translate(-17.94 -10.98)"/><path class="cls-1" d="M358.06,213.43c-1-.05-2.68-.07-5-.07q-4.8,0-7.17.07V213a3.66,3.66,0,0,0,1.06-.18.77.77,0,0,0,.47-.51,4.29,4.29,0,0,0,.12-1.21V200.18a4.39,4.39,0,0,0-.12-1.21.74.74,0,0,0-.47-.5,3.66,3.66,0,0,0-1.06-.18v-.44c1.58,0,4,.07,7.17.07,2.16,0,3.69,0,4.6-.07-.1,1.22-.16,2.3-.16,3.26a13.57,13.57,0,0,0,.07,1.49H357a6.29,6.29,0,0,0-1.18-3.3,3.11,3.11,0,0,0-2.42-.94h-.91a3,3,0,0,0-1,.11.63.63,0,0,0-.41.43,3.18,3.18,0,0,0-.11,1v5.45h.7a2,2,0,0,0,1.77-.85,5.48,5.48,0,0,0,.85-2.05h.5q-.06.93-.06,2.07v1.05c0,.75,0,1.79.13,3.13h-.51c-.3-1.94-1.2-2.91-2.68-2.91H351v5.55a3.18,3.18,0,0,0,.11,1,.65.65,0,0,0,.41.43,3.36,3.36,0,0,0,1,.11h1.08a3.2,3.2,0,0,0,2.52-1.07,7,7,0,0,0,1.35-3.62H358c0,.49-.07,1.1-.07,1.85A30.35,30.35,0,0,0,358.06,213.43Z" transform="translate(-17.94 -10.98)"/><path class="cls-1" d="M377.7,198.29a2.32,2.32,0,0,0-1.06.37,1.39,1.39,0,0,0-.47.84,8.89,8.89,0,0,0-.12,1.69v12.28l-.52,0-.6,0-9.55-12.1v8.45a9.51,9.51,0,0,0,.14,1.9,1.26,1.26,0,0,0,.57.88,3.71,3.71,0,0,0,1.43.39v.44c-.57-.05-1.37-.07-2.38-.07-.81,0-1.44,0-1.91.07V213a2.31,2.31,0,0,0,1.06-.38,1.33,1.33,0,0,0,.47-.83,8.93,8.93,0,0,0,.12-1.7v-9.9a4.39,4.39,0,0,0-.12-1.21.74.74,0,0,0-.47-.5,3.66,3.66,0,0,0-1.06-.18v-.44c.47,0,1.1.07,1.91.07s1.37,0,1.89-.07l8.52,10.49v-6.88a10.47,10.47,0,0,0-.13-1.9,1.28,1.28,0,0,0-.58-.88,3.39,3.39,0,0,0-1.43-.39v-.44c.58,0,1.37.07,2.38.07.82,0,1.46,0,1.91-.07Z" transform="translate(-17.94 -10.98)"/><path class="cls-1" d="M395.72,201.59a15,15,0,0,0,.07,1.67h-.51a8.72,8.72,0,0,0-1.44-3.8,3.05,3.05,0,0,0-2.5-1.1h-.5v12.56a3.42,3.42,0,0,0,.19,1.34,1,1,0,0,0,.65.56,6.19,6.19,0,0,0,1.51.17v.44c-1.85-.05-3.24-.07-4.18-.07s-2.26,0-4,.07V213a6.09,6.09,0,0,0,1.5-.17,1,1,0,0,0,.66-.56,3.42,3.42,0,0,0,.19-1.34V198.36h-.48a3.3,3.3,0,0,0-1.8.46,3.66,3.66,0,0,0-1.26,1.53,12.3,12.3,0,0,0-.9,2.91h-.51c0-.42.07-1,.07-1.67,0-1.1-.06-2.35-.16-3.74,1.34,0,3.6.07,6.8.07s5.46,0,6.78-.07C395.77,199.24,395.72,200.49,395.72,201.59Z" transform="translate(-17.94 -10.98)"/><rect class="cls-1" x="0.59" y="173.49" width="377.65" height="0.5"/><rect class="cls-1" x="0.59" y="214.79" width="377.65" height="1.14"/><path class="cls-2" d="M204.53,54.82l-.94-.12L176,63.91l2.37-14,9.11-5.14c-15,0-25.33-20.58-25.33-20.58l8.31,46.43L205.71,58Z" transform="translate(-17.94 -10.98)"/><path class="cls-2" d="M208.88,58,244.1,70.64l8.32-46.43s-10.29,20.58-25.33,20.58l9.1,5.14,2.37,14-28.49-9.09Z" transform="translate(-17.94 -10.98)"/><path class="cls-2" d="M215.8,62.34l-8.57,7.92-8.58-7.92a69.8,69.8,0,0,1,2.44,10.43,69.49,69.49,0,0,1,.06,8.94A7,7,0,0,0,207.22,85h0a7,7,0,0,0,6.06-3.25,70.36,70.36,0,0,1,.07-8.94A70.24,70.24,0,0,1,215.8,62.34Z" transform="translate(-17.94 -10.98)"/><path class="cls-2" d="M209.6,33.53l6.88,23.3-9.25,9.38-9.31-9.38,6.88-23.3s-2.39-2.42-7.59-3.24c0,0,6.9-5.56,9.68-19.31h.76c2.78,13.75,9.54,19.31,9.54,19.31C212,31.11,209.6,33.53,209.6,33.53Z" transform="translate(-17.94 -10.98)"/></svg>